<svg width="128" height="32" viewBox="0 0 128 32" fill="none" xmlns="http://www.w3.org/2000/svg">
<path fill-rule="evenodd" clip-rule="evenodd" d="M8.48823 31.4863C9.9705 32.4256 11.9318 31.9826 12.8695 30.5019L20.9524 17.6963H20.9483C20.9503 17.6922 20.9524 17.6891 20.9544 17.686C20.9565 17.6829 20.9585 17.6799 20.9606 17.6758C20.9769 17.647 20.9933 17.6183 21.0097 17.5937C21.0384 17.5445 21.0588 17.4994 21.0793 17.4502C21.0916 17.4297 21.1039 17.4091 21.1121 17.3886C21.1203 17.364 21.1325 17.3435 21.1448 17.323C21.1528 17.3023 21.1601 17.2822 21.1673 17.2625C21.1786 17.2315 21.1896 17.2014 21.2021 17.1712C21.2144 17.1425 21.2226 17.1179 21.2308 17.0892C21.2337 17.0777 21.2386 17.0662 21.2441 17.0533C21.2464 17.0478 21.2488 17.042 21.2513 17.0359C21.2677 16.9867 21.2799 16.9375 21.2922 16.8883L21.2922 16.8882C21.3045 16.8554 21.3127 16.8226 21.3168 16.7898C21.3192 16.778 21.3229 16.7675 21.3264 16.7577C21.329 16.7504 21.3314 16.7434 21.3332 16.7365L21.3577 16.597C21.3618 16.5785 21.3649 16.5601 21.368 16.5416C21.371 16.5232 21.3741 16.5047 21.3782 16.4863C21.3782 16.4687 21.3812 16.4512 21.3846 16.4311C21.3852 16.4277 21.3858 16.4242 21.3864 16.4206C21.3885 16.4017 21.3895 16.3817 21.3906 16.3612C21.3916 16.3417 21.3926 16.3217 21.3946 16.3017C21.3966 16.2812 21.3977 16.2617 21.3987 16.2422C21.3997 16.2227 21.4007 16.2032 21.4028 16.1827V16.1007C21.4028 16.0925 21.4038 16.0843 21.4048 16.0761C21.4059 16.0679 21.4069 16.0597 21.4069 16.0515C21.4069 16.0412 21.4059 16.031 21.4048 16.0207C21.4038 16.0105 21.4028 16.0002 21.4028 15.9899C21.4028 15.953 21.4028 15.9161 21.3987 15.8833C21.3987 15.8505 21.3987 15.8136 21.3946 15.7849C21.3905 15.7438 21.3864 15.7069 21.3823 15.67L21.3823 15.6697C21.3782 15.6411 21.3741 15.6125 21.37 15.5798C21.3682 15.5649 21.3655 15.5492 21.3627 15.533C21.3594 15.5135 21.3559 15.4933 21.3536 15.4731L21.3291 15.3624C21.327 15.348 21.324 15.3337 21.3209 15.3193C21.3178 15.305 21.3147 15.2906 21.3127 15.2762C21.3004 15.2434 21.2922 15.2106 21.284 15.1778C21.2779 15.1593 21.2728 15.1409 21.2677 15.1224C21.2625 15.104 21.2574 15.0855 21.2513 15.0671C21.2451 15.0506 21.24 15.0353 21.2349 15.0199C21.2298 15.0045 21.2247 14.9891 21.2185 14.9727C21.2062 14.944 21.194 14.9153 21.1858 14.8866C21.1694 14.8538 21.1571 14.8209 21.1448 14.784C21.1366 14.7656 21.1274 14.7471 21.1182 14.7287C21.109 14.7102 21.0998 14.6917 21.0916 14.6733C21.0793 14.6487 21.067 14.6241 21.0547 14.6036C21.0425 14.5748 21.0302 14.5461 21.0138 14.5215C20.9892 14.4723 20.9606 14.4272 20.9319 14.3821L20.9319 14.3821C20.9278 14.3739 20.9237 14.3657 20.9196 14.3533L12.8368 1.55181H12.8327C11.8786 0.1121 9.95002 -0.310379 8.48413 0.616614C7.01825 1.54771 6.57193 3.47553 7.46456 4.95216L7.46047 4.95626L12.456 12.8685H3.11194V12.8726C1.38809 12.9054 0 14.3164 0 16.0515C0 17.7865 1.38809 19.1975 3.11194 19.2344H12.456L7.49732 27.0975C6.55964 28.5823 7.00596 30.547 8.48823 31.4863ZM23.8912 19.2339H33.2393C34.9632 19.197 36.3513 17.786 36.3513 16.0509C36.3513 14.3159 34.9632 12.909 33.2393 12.8721V12.868H23.8912L28.8539 5.00494C29.7875 3.52011 29.3453 1.55537 27.863 0.620177C26.3808 -0.319122 24.4194 0.119764 23.4817 1.6046L19.4198 8.03203L23.4162 14.3569L23.4285 14.3815C23.4572 14.4266 23.4858 14.4718 23.5104 14.521C23.5144 14.5289 23.5183 14.5372 23.5224 14.5459C23.531 14.5641 23.5402 14.5835 23.5514 14.603C23.5636 14.6235 23.5759 14.6481 23.5882 14.6727L23.5882 14.6727C23.5948 14.6876 23.602 14.7024 23.6094 14.7175C23.6204 14.74 23.6316 14.7631 23.6414 14.7876L23.6783 14.886L23.6783 14.8861C23.6906 14.9148 23.7029 14.9435 23.7111 14.9722L23.7111 14.9723C23.7234 15.0051 23.7356 15.0378 23.7479 15.0665C23.752 15.085 23.7571 15.1034 23.7622 15.1219C23.7674 15.1403 23.7725 15.1588 23.7766 15.1773C23.7888 15.2101 23.797 15.2429 23.8052 15.2757C23.8134 15.3044 23.8216 15.3331 23.8257 15.3618L23.8503 15.4726L23.8503 15.4726C23.8544 15.5095 23.8585 15.5464 23.8666 15.5792C23.8707 15.612 23.8748 15.6408 23.8789 15.6695C23.883 15.7064 23.8871 15.7433 23.8871 15.7843L23.8871 15.7844C23.8912 15.8172 23.8953 15.85 23.8953 15.8828C23.8994 15.9156 23.8994 15.9525 23.8994 15.9894C23.8994 15.9997 23.9004 16.0099 23.9015 16.0202C23.9025 16.0304 23.9035 16.0407 23.9035 16.0509C23.9035 16.0591 23.9025 16.0673 23.9015 16.0755C23.9004 16.0837 23.8994 16.092 23.8994 16.1002V16.1822L23.8984 16.1924C23.8947 16.2294 23.8912 16.2635 23.8912 16.3011C23.8871 16.3422 23.883 16.3832 23.8789 16.4201C23.877 16.4318 23.876 16.4426 23.875 16.4528C23.8739 16.4642 23.8729 16.475 23.8707 16.4857C23.8687 16.5042 23.8656 16.5226 23.8626 16.5411C23.8595 16.5595 23.8564 16.578 23.8544 16.5965C23.8462 16.6457 23.838 16.6908 23.8257 16.7359C23.8237 16.7462 23.8216 16.7544 23.8196 16.7626C23.8175 16.7708 23.8155 16.779 23.8134 16.7892L23.7888 16.8877C23.7807 16.9123 23.7745 16.9369 23.7684 16.9615C23.7622 16.9861 23.7561 17.0107 23.7479 17.0354C23.7455 17.0415 23.743 17.0472 23.7407 17.0527C23.7352 17.0657 23.7303 17.0772 23.7274 17.0887C23.7212 17.1106 23.7125 17.1302 23.7033 17.151C23.7005 17.1574 23.6976 17.164 23.6947 17.1707C23.6783 17.2199 23.6619 17.2691 23.6373 17.3225C23.632 17.3359 23.6249 17.3493 23.6172 17.3638C23.6131 17.3715 23.6088 17.3796 23.6046 17.3881L23.6046 17.3881C23.5964 17.4086 23.5882 17.4291 23.5759 17.4496C23.5606 17.4864 23.543 17.5209 23.5249 17.5565C23.5187 17.5686 23.5125 17.5808 23.5063 17.5932C23.4899 17.6178 23.4736 17.6465 23.4572 17.6752C23.4531 17.6834 23.449 17.6916 23.4449 17.6957H23.449L19.4239 24.0739L23.5145 30.5547V30.5506C24.4686 31.9903 26.4012 32.4128 27.8671 31.4858C29.3289 30.5588 29.7752 28.631 28.8867 27.1502H28.8908L23.8912 19.2339Z" fill="#D6001B"/>
<path fill-rule="evenodd" clip-rule="evenodd" d="M76.3273 25.0847C73.7764 25.0847 71.7045 23.0051 71.7045 20.4497C71.7045 17.8984 73.7764 15.8188 76.3273 15.8188C78.8783 15.8188 80.9543 17.8984 80.9543 20.4497C80.9543 23.0051 78.8783 25.0847 76.3273 25.0847ZM86.9405 10.0188C86.3263 9.33376 85.4951 8.99331 84.4427 8.99331C83.3986 8.99331 82.5756 9.33376 81.9737 10.0188C81.9 10.1008 81.8344 10.1869 81.7689 10.2731C80.1474 9.39939 78.2926 8.90308 76.3271 8.90308C69.9722 8.90308 64.8007 14.0836 64.8007 20.4495C64.8007 26.8195 69.9722 32 76.3271 32C78.3048 32 80.1679 31.4955 81.7935 30.6136C81.8549 30.6997 81.9204 30.7777 81.9859 30.8597C82.592 31.557 83.415 31.9056 84.4427 31.9056C85.5074 31.9056 86.3468 31.5611 86.9446 30.872C87.5547 30.1829 87.8536 29.3257 87.8536 28.292V12.5659C87.8536 11.5487 87.5465 10.6996 86.9405 10.0188Z" fill="#D6001B"/>
<path fill-rule="evenodd" clip-rule="evenodd" d="M115.532 25.0128C112.981 25.0128 110.909 22.9332 110.909 20.3779C110.909 17.8266 112.981 15.747 115.532 15.747C118.083 15.747 120.159 17.8266 120.159 20.3779C120.159 22.9332 118.083 25.0128 115.532 25.0128ZM126.146 9.94287C125.531 9.26198 124.7 8.92154 123.648 8.92154C122.604 8.92154 121.781 9.26198 121.179 9.94287C121.105 10.029 121.036 10.1151 120.974 10.2013C119.353 9.32761 117.498 8.8313 115.532 8.8313C109.177 8.8313 104.006 14.0118 104.006 20.3777C104.006 26.7436 109.177 31.9282 115.532 31.9282C117.51 31.9282 119.369 31.4237 120.999 30.5418C121.06 30.6239 121.126 30.7059 121.191 30.7838C121.797 31.4852 122.616 31.8339 123.648 31.8339C124.713 31.8339 125.552 31.4893 126.15 30.8002C126.76 30.1111 127.059 29.2539 127.059 28.2202V12.4901C127.059 11.4769 126.752 10.6238 126.146 9.94287Z" fill="#D6001B"/>
<path fill-rule="evenodd" clip-rule="evenodd" d="M101.543 8.88025C101.511 8.88025 101.474 8.88845 101.441 8.88845C101.416 8.88845 101.392 8.88845 101.367 8.88845C99.3936 8.88845 97.5346 9.38476 95.9049 10.2584C95.8353 10.16 95.7616 10.0698 95.6797 9.97952C95.0615 9.29863 94.2139 8.95818 93.1574 8.95818C92.0969 8.95818 91.2657 9.29863 90.6597 9.97952C90.0496 10.6604 89.7466 11.5095 89.7466 12.5226V28.2282C89.7466 29.2331 90.0578 30.0863 90.672 30.7877C91.2821 31.485 92.1133 31.8336 93.1574 31.8336C94.2302 31.8336 95.0778 31.4891 95.6838 30.8041C96.298 30.1109 96.6051 29.2577 96.6051 28.2282V20.2708C96.7403 17.7564 98.8244 15.7507 101.367 15.7507C101.404 15.7507 101.441 15.7507 101.474 15.7507C101.498 15.7507 101.523 15.7589 101.543 15.7589C103.439 15.7589 104.979 14.2207 104.979 12.3175C104.979 10.4184 103.439 8.88025 101.543 8.88025Z" fill="#D6001B"/>
<path fill-rule="evenodd" clip-rule="evenodd" d="M61.7953 25.1847H61.7585V25.1601C59.7644 25.1601 58.0569 23.9296 57.3444 22.1945C57.3444 22.1945 57.0864 22.4734 56.9964 15.6974H61.5824C62.5897 15.6974 63.4455 15.3897 64.1456 14.7827C64.8417 14.1756 65.1898 13.3553 65.1898 12.3216C65.1898 11.2552 64.8458 10.4143 64.1579 9.81547C63.47 9.20431 62.6142 8.90488 61.5824 8.90488H57.0005V3.65055C57.0005 2.60871 56.6975 1.74324 56.0833 1.04594C55.4813 0.35275 54.6297 0 53.5569 0C52.5168 0 51.6897 0.356852 51.0755 1.06235C50.4654 1.76785 50.1583 2.62922 50.1583 3.65055V8.90488H45.8835C44.868 8.90488 44.0204 9.20841 43.3366 9.81957C42.6569 10.4348 42.317 11.2675 42.317 12.3216C42.317 13.3676 42.6569 14.192 43.3366 14.795C44.0204 15.3979 44.868 15.6974 45.8835 15.6974H50.1583V18.6998V20.398H50.1501C50.1501 26.7967 55.3585 31.9977 61.7585 31.9977V31.9813C61.7707 31.9813 61.783 31.9813 61.7953 31.9813C63.6666 31.9813 65.1898 30.4554 65.1898 28.5809C65.1898 26.7105 63.6666 25.1847 61.7953 25.1847Z" fill="#D6001B"/>
</svg>
