<svg width="14" height="14" viewBox="0 0 14 14" fill="none" xmlns="http://www.w3.org/2000/svg">
<path d="M7.63961 0.445137L9.14858 3.50961C9.20681 3.6216 9.29109 3.71786 9.39428 3.79024C9.49747 3.86262 9.61654 3.90899 9.74139 3.92542L13.1117 4.41607C13.2617 4.43331 13.4038 4.49324 13.521 4.58879C13.6382 4.68434 13.7257 4.81151 13.7732 4.95532C13.8207 5.09913 13.8262 5.25356 13.789 5.4004C13.7519 5.54724 13.6737 5.68036 13.5636 5.78406L11.1218 8.17077C11.0302 8.25996 10.9616 8.37014 10.9219 8.49183C10.8822 8.61352 10.8726 8.74307 10.8938 8.86932L11.4701 12.2373C11.4948 12.3827 11.4785 12.5321 11.423 12.6687C11.3674 12.8053 11.2749 12.9235 11.1558 13.01C11.0368 13.0966 10.8959 13.148 10.7493 13.1584C10.6026 13.1688 10.4559 13.1378 10.3259 13.0689L7.31212 11.4764C7.19889 11.417 7.07301 11.386 6.94524 11.386C6.81747 11.386 6.69159 11.417 6.57836 11.4764L3.54799 13.0731C3.41796 13.142 3.27131 13.1729 3.12464 13.1625C2.97797 13.1521 2.83713 13.1007 2.71806 13.0142C2.599 12.9277 2.50646 12.8094 2.45093 12.6729C2.39539 12.5363 2.37908 12.3869 2.40383 12.2415L2.98005 8.87348C3.00133 8.74723 2.9917 8.61768 2.95198 8.49599C2.91226 8.3743 2.84365 8.26412 2.75205 8.17493L0.297905 5.78406C0.193049 5.68046 0.119059 5.54959 0.0842407 5.40615C0.0494228 5.26271 0.0551551 5.11237 0.100794 4.97202C0.146433 4.83167 0.230173 4.70685 0.342612 4.61158C0.45505 4.51631 0.591738 4.45437 0.737329 4.4327L4.10763 3.94205C4.2329 3.92525 4.35238 3.87878 4.45619 3.80648C4.56 3.73417 4.64514 3.63811 4.70459 3.52624L6.20941 0.46177C6.27211 0.325378 6.37208 0.209614 6.49773 0.127911C6.62337 0.0462084 6.76954 0.00191671 6.91927 0.000175462C7.069 -0.00156578 7.21616 0.039315 7.34366 0.118074C7.47116 0.196832 7.57378 0.31024 7.63961 0.445137Z" fill="url(#paint0_linear_2820_55710)"/>
<defs>
<linearGradient id="paint0_linear_2820_55710" x1="6.93073" y1="1.80066" x2="6.93073" y2="9.42234" gradientUnits="userSpaceOnUse">
<stop stop-color="#FFE100"/>
<stop offset="1" stop-color="#EDAA00"/>
</linearGradient>
</defs>
</svg>
